<?xml version="1.0" standalone="no"?>
<!DOCTYPE svg PUBLIC "-//W3C//DTD SVG 20010904//EN"
 "http://www.w3.org/TR/2001/REC-SVG-20010904/DTD/svg10.dtd">
<svg version="1.0" xmlns="http://www.w3.org/2000/svg"
 width="512.000000pt" height="512.000000pt" viewBox="0 0 512.000000 512.000000"
 preserveAspectRatio="xMidYMid meet">

<g transform="translate(0.000000,512.000000) scale(0.100000,-0.100000)"
fill="#f34e00" stroke="none">
<path d="M2225 5113 c-667 -40 -1117 -140 -1360 -303 -112 -74 -276 -242 -358
-366 -148 -223 -237 -475 -279 -789 -17 -131 -16 -1106 1 -1390 67 -1083 325
-1678 866 -1993 192 -112 530 -203 945 -254 159 -19 575 -16 735 6 169 23 334
59 465 103 212 71 291 121 305 196 4 18 1 130 -4 251 -12 239 -20 269 -74 308
-45 32 -108 33 -220 4 -97 -25 -276 -58 -392 -71 -91 -11 -391 -7 -507 5 -326
35 -468 115 -533 299 -8 24 -14 45 -12 47 1 1 35 -4 74 -11 375 -72 858 -90
1303 -49 450 41 668 92 929 215 340 162 591 401 676 646 28 80 68 346 90 593
20 238 38 748 30 895 -21 418 -109 714 -296 995 -79 119 -255 298 -364 368
-231 151 -694 256 -1295 292 -149 9 -598 11 -725 3z m915 -337 c397 -40 706
-108 871 -192 163 -82 339 -280 434 -487 111 -246 152 -514 141 -922 -18 -605
-65 -1034 -125 -1153 -120 -235 -499 -469 -879 -542 -143 -28 -420 -58 -642
-71 -393 -22 -843 17 -1225 106 -123 29 -191 10 -234 -66 -26 -45 -28 -141 -6
-276 59 -361 280 -576 669 -648 284 -53 720 -48 996 10 39 8 74 15 76 15 3 0
4 -21 2 -47 l-3 -47 -102 -33 c-266 -85 -636 -121 -968 -93 -268 23 -623 99
-782 167 -396 171 -645 566 -752 1193 -51 295 -69 581 -77 1185 -9 641 7 840
87 1080 84 252 247 476 433 596 177 115 581 203 1101 239 191 13 800 4 985
-14z"/>
<path d="M1760 4260 c-364 -46 -648 -279 -744 -611 -47 -163 -51 -244 -51
-955 l0 -660 25 -37 c28 -41 91 -77 135 -77 39 0 106 35 130 68 19 26 20 48
26 722 7 734 9 774 56 896 65 170 229 296 428 331 146 25 300 -6 413 -84 62
-42 100 -87 168 -198 l49 -80 5 -471 5 -471 27 -35 c72 -94 215 -82 268 21 19
39 20 57 20 493 l0 453 62 100 c74 119 136 182 221 223 86 41 157 57 262 56
163 -1 301 -60 409 -174 155 -164 169 -262 165 -1151 l-3 -585 22 -36 c25 -40
91 -78 137 -78 39 0 106 35 130 67 15 22 21 52 26 143 12 181 10 1070 -2 1225
-21 287 -75 440 -217 610 -239 289 -708 384 -1059 215 -97 -48 -215 -138 -269
-208 -21 -28 -41 -51 -44 -51 -3 0 -23 23 -44 51 -54 70 -172 160 -269 208
-139 67 -335 99 -487 80z"/>
</g>
</svg>
